D:\school\WTK\thesis\model\3dpredictsim\Results\Batchsim_tmt_linear\Pog_s1_tmt_bCst_d00_k250_ig24_pas_GRF.mot
nRows=15
nColumns=19

name D:\school\WTK\thesis\model\3dpredictsim\Results\Batchsim_tmt_linear\Pog_s1_tmt_bCst_d00_k250_ig24_pas_GRF.mot
datacolumns 19
datarows 15
range 0.5655388637 0.7238897455
endheader
time 	ground_force_vx	ground_force_vy	ground_force_vz	ground_force_px	ground_force_py	ground_force_pz	1_ground_force_vx	1_ground_force_vy	1_ground_force_vz	1_ground_force_px	1_ground_force_py	1_ground_force_pz	ground_torque_x	ground_torque_y	ground_torque_z	1_ground_torque_x	1_ground_torque_y	1_ground_torque_z
        0.5655388637	       85.0672823081	      426.4001496598	        7.2766750985	        0.3806698622	        0.0000000000	        0.0276320062	      -57.0285149937	       77.0463871349	      -60.7987352838	        0.8843108897	        0.0000000000	       -0.0343485038	        0.0000000000	        0.0000000000	        0.0000000000	        0.0000000000	        0.0000000000	        0.0000000000	
        0.5768496409	       65.2835880480	      339.8755408242	       14.4331771692	        0.3860812166	        0.0000000000	        0.0259117966	      -51.1003408759	      178.4138191210	     -104.3716053624	        0.8882739157	        0.0000000000	       -0.0316547748	        0.0000000000	        0.0000000000	        0.0000000000	        0.0000000000	        0.0000000000	        0.0000000000	
        0.5881604182	       36.2532073975	      230.6465571880	       10.7427868787	        0.3970460199	        0.0000000000	        0.0211199336	      -43.6195751886	      345.6946816772	      -26.0321339531	        0.8910289466	        0.0000000000	       -0.0289759483	        0.0000000000	        0.0000000000	        0.0000000000	        0.0000000000	        0.0000000000	        0.0000000000	
        0.5994711955	       17.3455756592	      152.0304704026	        9.9982547235	        0.4140206348	        0.0000000000	        0.0123738262	      -54.8990000833	      539.0664604247	       -0.1425204499	        0.8954257344	        0.0000000000	       -0.0294673924	        0.0000000000	        0.0000000000	        0.0000000000	        0.0000000000	        0.0000000000	        0.0000000000	
        0.6107819728	        1.2782687368	      123.0256225572	       12.1262756057	        0.4159086119	        0.0000000000	        0.0111663336	      -95.1496140349	      744.8591625469	        9.3290521362	        0.9040052877	        0.0000000000	       -0.0320049003	        0.0000000000	        0.0000000000	        0.0000000000	        0.0000000000	        0.0000000000	        0.0000000000	
        0.6220927500	       -3.1454381033	       81.2861867390	       10.2940918353	        0.4163802784	        0.0000000000	        0.0111493075	     -119.9569953678	      871.2346042139	       12.0366975111	        0.9099499830	        0.0000000000	       -0.0336895773	        0.0000000000	        0.0000000000	        0.0000000000	        0.0000000000	        0.0000000000	        0.0000000000	
        0.6334035273	       -7.6593641588	       33.6083030787	        5.9400946878	        0.4164017500	        0.0000000000	        0.0110958106	     -125.6050244115	      905.1450653489	       13.2873278540	        0.9139435327	        0.0000000000	       -0.0346682902	        0.0000000000	        0.0000000000	        0.0000000000	        0.0000000000	        0.0000000000	        0.0000000000	
        0.6447143046	        0.0378376921	       -0.0374356342	       -0.0006955728	        0.0000000000	        0.0000000000	        0.0000000000	     -118.1584413176	      888.2472934469	       13.5606405366	        0.9170019750	        0.0000000000	       -0.0352330431	        0.0000000000	        0.0000000000	        0.0000000000	        0.0000000000	        0.0000000000	        0.0000000000	
        0.6560250818	        0.0000053541	       -0.0000042989	        0.0000003795	        0.0000000000	        0.0000000000	        0.0000000000	     -104.8552370683	      849.9382713209	       14.5580533703	        0.9199737329	        0.0000000000	       -0.0355186238	        0.0000000000	        0.0000000000	        0.0000000000	        0.0000000000	        0.0000000000	        0.0000000000	
        0.6673358591	        0.0000053624	       -0.0000037974	        0.0000004489	        0.0000000000	        0.0000000000	        0.0000000000	      -90.7164335378	      801.8971465408	       14.4358349977	        0.9231129581	        0.0000000000	       -0.0356605688	        0.0000000000	        0.0000000000	        0.0000000000	        0.0000000000	        0.0000000000	        0.0000000000	
        0.6786466364	        0.0001031971	       -0.0000655391	        0.0000094146	        0.0000000000	        0.0000000000	        0.0000000000	      -77.8546540288	      755.9576808617	       14.4833166929	        0.9264275484	        0.0000000000	       -0.0357202968	        0.0000000000	        0.0000000000	        0.0000000000	        0.0000000000	        0.0000000000	        0.0000000000	
        0.6899574137	        0.0032636083	       -0.0018991379	        0.0003125674	        0.0000000000	        0.0000000000	        0.0000000000	      -66.6824901112	      719.1566945504	       14.7536449376	        0.9303852408	        0.0000000000	       -0.0356790463	        0.0000000000	        0.0000000000	        0.0000000000	        0.0000000000	        0.0000000000	        0.0000000000	
        0.7012681909	       -0.0165658066	        0.0089579857	       -0.0016430103	        0.0000000000	        0.0000000000	        0.0000000000	      -56.5768736626	      688.1128593913	       15.3729385227	        0.9346640869	        0.0000000000	       -0.0355777068	        0.0000000000	        0.0000000000	        0.0000000000	        0.0000000000	        0.0000000000	        0.0000000000	
        0.7125789682	       -0.0116285672	        0.0059098244	       -0.0011948761	        0.0000000000	        0.0000000000	        0.0000000000	      -47.3190569131	      660.3381349669	       16.3466807458	        0.9390217079	        0.0000000000	       -0.0354952753	        0.0000000000	        0.0000000000	        0.0000000000	        0.0000000000	        0.0000000000	        0.0000000000	
        0.7238897455	       -0.0085302781	        0.0041123404	       -0.0009080796	        0.0000000000	        0.0000000000	        0.0000000000	      -39.5916760885	      636.4341813018	       17.4717420945	        0.9435036304	        0.0000000000	       -0.0354478414	        0.0000000000	        0.0000000000	        0.0000000000	        0.0000000000	        0.0000000000	        0.0000000000	
